PathFileType	4	(X/Y/Z)	37_2_19_p0_0-547_filt_butterworth.trc
DataRate	CameraRate	NumFrames	NumMarkers	Units	OrigDataRate	OrigDataStartFrame	OrigNumFrames
60.0	60.0	6	27	m	60.0	68	547
Frame#	Time	RHip			RKnee			RAnkle			RBigToe			RSmallToe			RHeel			LHip			LKnee			LAnkle			LBigToe			LSmallToe			LHeel			Neck			Head			Nose			RShoulder			RElbow			RWrist			RThumb			RIndex			RPinky			LShoulder			LElbow			LWrist			LThumb			LIndex			LPinky			
		X1	Y1	Z1	X2	Y2	Z2	X3	Y3	Z3	X4	Y4	Z4	X5	Y5	Z5	X6	Y6	Z6	X7	Y7	Z7	X8	Y8	Z8	X9	Y9	Z9	X10	Y10	Z10	X11	Y11	Z11	X12	Y12	Z12	X13	Y13	Z13	X14	Y14	Z14	X15	Y15	Z15	X16	Y16	Z16	X17	Y17	Z17	X18	Y18	Z18	X19	Y19	Z19	X20	Y20	Z20	X21	Y21	Z21	X22	Y22	Z22	X23	Y23	Z23	X24	Y24	Z24	X25	Y25	Z25	X26	Y26	Z26	X27	Y27	Z27	
68	1.1333333333333333	0.35768011988369786	0.7769953007679888	0.8037065241160297	0.3342022091423415	0.29063421126915	0.8937896556282686	0.3806518385817678	-0.1649969598618801	1.013675642454152	0.32925406197941076	-0.1927260112541523	0.8535443342657707	0.39004245722449105	-0.19330322647977236	0.8596915242605333	0.37370261897257756	-0.250910297337392	1.1362932130161982	0.1795029881411735	0.7710933088516567	0.8855791512084195	0.1870423951945746	0.297041334549321	0.9314059874989203	0.1772817387488801	-0.156001861360632	1.0451193729560309	0.1664038182074834	-0.16502138020586302	0.8581312465180116	0.11210769741537738	-0.18850370019572532	0.9222037999073656	0.20232407116211543	-0.24058638798356471	1.1139147493262194	0.22125687039436998	1.2684248832404197	0.8403304018257081	0.050906050972365016	1.448682703450353	0.8081924331293221	0.10866297303202041	1.3225792692589338	0.7858766614308285	0.38553024446932976	1.267357093782448	0.8384680510592474	0.2675553890815179	1.0797448445751823	0.6474429344509354	0.2181645827361522	1.2795754191838575	0.7376973650198502	0.1896020987124883	1.356552951435698	0.7381511608338347	0.12363668624774425	1.3817559033700413	0.7384742971013869	0.10596215668670489	1.3193392758221654	0.7139338760142055	0.12495873691142276	1.1948950467108508	0.9336287891025803	0.13965135557377978	1.027450478610756	0.9444086182001055	0.11376732468651513	1.2329100178012737	0.8638974182356829	0.10098976991653971	1.3082998680197095	0.7786041902010249	0.06204520012960184	1.3200715492005786	0.7657858526483116	0.04426398502982497	1.2653611405547047	0.747465675292187	
69	1.15	0.3576745714725788	0.7769002028513676	0.8035028085607183	0.3343979150762493	0.29057986605742514	0.89392519164832	0.3807478382233427	-0.16511698845483005	1.0138909530405764	0.32937107314721903	-0.1925823243570469	0.8533441291795335	0.39016455091518376	-0.1934060742795593	0.8598999105362908	0.3734100404082044	-0.250883510983127	1.136274552415957	0.1796918396757102	0.7714344755493316	0.8842904839819633	0.18712759955089756	0.29704168018682614	0.9313901799250421	0.17740149312782266	-0.156450268011123	1.045272180589026	0.16641195771073922	-0.1648221434114216	0.8582192591781627	0.11211593642537046	-0.1884558244839176	0.9221432648420838	0.2023376736343484	-0.24068782161531888	1.1139056648016048	0.22076262915462436	1.26817443288626	0.8430072010788026	0.049897154659451784	1.4481842197557384	0.8085392162993192	0.10839540260664132	1.3221257940715665	0.7871646807020068	0.38551400093220756	1.2673396703365805	0.8385062765011915	0.26799299384049136	1.081080157375492	0.6474455459275519	0.21691955296640114	1.2828647106076347	0.7361383277249698	0.18721533096605558	1.357126463031678	0.7394329792477417	0.12233096458899428	1.3823906305169316	0.7381166659915743	0.10438660803135788	1.318708411581742	0.7124097107197496	0.12503162221294578	1.1949512840305296	0.9339926172134914	0.14089648122746673	1.022921501973052	0.9416675838248283	0.12438883790644087	1.229786067184294	0.8683471810195131	0.10058998869487162	1.3078529931945464	0.7803539862336122	0.060312669084105805	1.3203769215161825	0.7626976372644071	0.04265192271123928	1.267000325816336	0.7444347251553167	
70	1.1666666666666667	0.3577735892453392	0.7767937838748993	0.8035324919855201	0.3345970881669849	0.2904223335933357	0.8940959823598074	0.38077791403274086	-0.16515352692046947	1.0139546043320407	0.3292775118538608	-0.19239403051869394	0.8530726143855468	0.39008878454909307	-0.19321997814059635	0.8596316293442436	0.37301147312793625	-0.25084160556434615	1.1362314705580203	0.1799075317527238	0.7718596746588153	0.8829793258296879	0.1871573423268858	0.297029548995444	0.9313946975047814	0.17748168795229569	-0.15705860031974408	1.0454736020790905	0.16648977277764837	-0.1652884827204252	0.8584072034280975	0.11211778577240064	-0.18843639900241227	0.9221331452301191	0.20234035624200983	-0.24091221449982192	1.113798888957391	0.2201837601124531	1.267906861212092	0.8462724755055477	0.04887458434871721	1.4477135195453275	0.8086302732453399	0.10826825334018947	1.3217937018904697	0.7872015485279859	0.3855045774590972	1.267323731472386	0.8385384034084574	0.2690813707386729	1.0819074148704444	0.6480021105737912	0.2169815893763687	1.283263728410727	0.7356783186373402	0.18573148809461723	1.3574309057979197	0.7403485471517282	0.12170386420153728	1.382462887600335	0.7384730633580258	0.10248832323457209	1.3181253809921964	0.7112615432312352	0.12493638609899443	1.1948466424511295	0.933933135807381	0.1420555479524352	1.0193097381745322	0.938293445852632	0.13752225016838504	1.2251028637264196	0.8764320944230266	0.09979035438958211	1.3073448863229251	0.7833069180647488	0.05931415845729705	1.3205493438956073	0.7613421070530857	0.04174956234357427	1.2682575469822746	0.7429243278787211	
71	1.1833333333333331	0.35794130708840427	0.776749562867387	0.8037395911377111	0.33476264436231395	0.2901343203722898	0.8942862191053703	0.3807712271193451	-0.16514640160694616	1.013938131080278	0.32916409720875617	-0.19230692233508756	0.8529635807573852	0.3900175328737959	-0.1930415216075825	0.8594047056907123	0.37252033339890916	-0.2507927150356747	1.1361809007009949	0.18018454235039505	0.7723922622159918	0.8816330109958441	0.18715450836332312	0.2970082046705608	0.9314114197607154	0.177497371417581	-0.1578081830677423	1.0456814434823019	0.16661692170379858	-0.1662985981177788	0.8586555892714561	0.11211035350948939	-0.18844842753735863	0.9221463856159869	0.2023277276674898	-0.2412658321801004	1.1135940433202216	0.21965183092149773	1.2676873391081047	0.8492718250006193	0.04798183495922628	1.447019355542033	0.8083285475443833	0.1081851548598548	1.321472020144053	0.7866902075877606	0.385501478890018	1.2673119954238738	0.8385589287820754	0.27045812460487945	1.0822936966351062	0.6490760843149648	0.21828457967752446	1.2806145922439323	0.7362032872212683	0.18520197508208996	1.3572502281817334	0.7409704348924913	0.12154968389273767	1.381395215556096	0.738893634178706	0.10038225003449196	1.317226997303565	0.7107538582342545	0.12482558206366504	1.1945043324241233	0.9337702104759783	0.1430332216395959	1.0186233447643214	0.9360599473229847	0.1501227070040321	1.2198083157340942	0.8849176625860256	0.09878437279755783	1.3066735438368593	0.7864079044829495	0.0590548629384736	1.3205541271322563	0.7622135777463217	0.04140763872953814	1.269041607870209	0.7424842653462804	
72	1.2	0.35810914962102386	0.7768363510370866	0.8039804497455045	0.3348691324929905	0.28971854823997256	0.8944639944861512	0.3807554957545303	-0.16513174039558548	1.013906387448803	0.3291313221478164	-0.19229897744130953	0.8529788232636787	0.3900453325545383	-0.19302264470530842	0.8594829775140379	0.37199719938347103	-0.25074741124221717	1.1361387172609807	0.1805065195906013	0.7730221757197946	0.8802596551644448	0.18714310033018547	0.29698427237233305	0.9314263930528104	0.17746612777963874	-0.15866024631406112	1.0458738871237545	0.16676671373687918	-0.16759761668103268	0.8589198519126314	0.11210322799810159	-0.1884662571611444	0.9221229332544849	0.20229596616111656	-0.24173846740098762	1.113320482997006	0.21925699325278966	1.2675422878189957	0.8514683842039237	0.047252971770538624	1.4461775635224225	0.807612338916753	0.10814684117706193	1.3211198668078923	0.7862495779470862	0.3855033346943968	1.2673024292564534	0.8385713212499781	0.2718080476142092	1.0821038038364506	0.6505749032746309	0.22039707112630536	1.2755747933611348	0.7372849328429316	0.18549320546607473	1.3564470256205674	0.7415815731094808	0.12153031555551362	1.378631742738397	0.7393402096298416	0.09844074305218098	1.3158654906998233	0.7111343755056811	0.12477256150014768	1.1940176690036375	0.9336355648278126	0.14384158825824478	1.0216176062380498	0.9356241872632699	0.15979280575030036	1.2148964101439423	0.8913543187315757	0.09770942981804201	1.3057258856713194	0.7891576753844454	0.05949247225349133	1.3204182841379197	0.765029647917365	0.04144924786928719	1.2693554189383547	0.7426793335001847	
73	1.2166666666666666	0.3582212951146155	0.7770680730578046	0.8041112708959706	0.3349270351341604	0.28920048453828334	0.8945969894051838	0.3807407611059489	-0.1651217209680781	1.0138802492063856	0.3291673792621099	-0.1922964396812166	0.8530014700386186	0.39011852789591506	-0.19312897259504072	0.8597872165407756	0.37151624810589245	-0.2507127538670837	1.1361065288264616	0.18081284430555075	0.7736941427103786	0.8788937119946583	0.1871340536539541	0.2969621851638685	0.9314304698830981	0.17742177126287312	-0.15954012326511183	1.046051289103195	0.16693051602497244	-0.1688816341701468	0.8592199533742263	0.11211036452345499	-0.18844782546635275	0.9220175857382248	0.202251103927023	-0.2422691472166038	1.1130351907401	0.21902184827257515	1.267494712107021	0.8525514901302633	0.04666830399738674	1.445497981668036	0.8065740855820045	0.10820036531444423	1.3207024994643477	0.785980843000951	0.38550771674818546	1.2672928366725453	0.8385821335710429	0.2729858165404482	1.080945505993194	0.652300334219547	0.2226658109642234	1.2694330352288428	0.7385313795827304	0.1863415817498221	1.354841493226648	0.7424174993059776	0.12131488229050724	1.374016968833716	0.739982570695592	0.09728904765397553	1.3142610289194334	0.712402540821319	0.12476131354422114	1.1935500860580006	0.9335033674907385	0.14435596260432193	1.027922199600318	0.9364401525551304	0.16547060986199086	1.211035134853758	0.8953746277584773	0.09668353810233278	1.304406454473899	0.7914102505596359	0.06044094595499606	1.3202112186361847	0.7684339057224369	0.04166425036902595	1.2693681691275942	0.7431111179672072	
